<?xml version="1.0" encoding="utf-8"?>
<!-- Generator: Adobe Illustrator 21.1.0, SVG Export Plug-In . SVG Version: 6.00 Build 0)  -->
<svg version="1.1" id="Layer_2" xmlns="http://www.w3.org/2000/svg" xmlns:xlink="http://www.w3.org/1999/xlink" x="0px" y="0px"
	 width="612px" height="244.35px" viewBox="0 0 612 244.35" enable-background="new 0 0 612 244.35" xml:space="preserve">
<path fill="#00447C" d="M186.14,144.96l2.05-1.67l-15.81,14.28c-0.85,0.6-1.71,1.19-2.58,1.77l47,33.98l-19.15-57.7L186.14,144.96z"
	/>
<path fill="#00447C" d="M119.29,171.68l-7.26,21.64l30.88-22.33c-4.81,1.01-9.85,1.52-15.11,1.36
	C124.93,172.26,122.09,172.02,119.29,171.68z"/>
<path fill="#C41230" d="M5.79,164.47c6.58-5.98,11.73-11.43,20.06-16.51l2.1-1.21l1.71-0.93l0.01,0l0,0
	c0.93-0.44,1.9-0.85,2.88-1.27c2.53-1.08,5.5-1.97,9.35-2.81c5.31-1.16,11.55-1.42,19.1-0.79c11.56,0.99,22.53,4.19,33.13,7.28
	c2.25,0.66,4.59,1.34,6.86,1.98c6.83,1.92,14.98,4.08,23.63,5.55c1.04,0.18,2.15,0.35,3.5,0.54l1.35,0.19
	c1.05,0.14,2.01,0.26,2.93,0.36c0.83,0.09,1.67,0.17,2.39,0.23l0.57,0.05c0.54,0.05,1.09,0.1,1.64,0.14
	c1.84,0.13,3.38,0.21,4.85,0.24c9.6,0.24,19.24-2.19,25.63-4.27c8.4-2.73,15.12-6.1,18.61-8.35l2.04-1.66l0.12,0.14l0,0.01l0,0
	l-0.01,0l-15.81,14.27l0,0l-0.01,0c-0.78,0.55-1.63,1.13-2.58,1.77c-8.8,5.84-17.86,9.76-26.92,11.67
	c-5.02,1.06-10.11,1.51-15.13,1.36c-2.75-0.09-5.62-0.31-8.52-0.67c-11.59-1.43-22.56-4.84-32.69-8.31
	c-2.3-0.79-4.65-1.62-6.93-2.43c-10.67-3.79-21.7-7.71-33.32-8.92c-7.54-0.79-13.81-0.48-19.19,0.95c-3.84,1.02-6.82,2.12-9.38,3.44
	c-0.8,0.41-1.99,1.16-3.24,1.91C11.41,160.57,5.79,164.47,5.79,164.47z"/>
<g display="none">
	<path display="inline" fill="#00447C" d="M125.44,135.4c0.97-0.48,1.89-1,2.76-1.58c0.77,0.04,1.15,0.08,1.92,0.18l0,10.47
		c-0.9-0.09-1.35-0.12-2.25-0.15l0.01-8.19c-0.43,0.31-1.3,0.83-2.43,1.37L125.44,135.4z"/>
	<path display="inline" fill="#00447C" d="M140.8,140.13c-0.06-1.32,0.95-2.66,3.51-1.89c2.11,0.62,3.63,2.19,3.7,3.85
		c0.06,1.28-1.97,1.82-1.97,1.82c0,0.01,1.15,0.6,1.74,1.52c0.39,0.6,0.53,1.18,0.56,1.69c0.08,1.95-1.66,2.71-3.73,2.15
		c-2.15-0.58-3.68-2.45-3.76-4.19c-0.04-0.84,0.25-1.34,0.69-1.66c0.49-0.36,1.35-0.38,1.35-0.38
		C142.9,143.02,140.87,141.8,140.8,140.13 M146.11,146.44c-0.04-0.97-0.77-1.73-1.58-1.96c-0.87-0.25-1.48,0.24-1.44,1.15
		c0.05,1.09,0.87,1.84,1.6,2.03C145.32,147.84,146.16,147.64,146.11,146.44 M145.83,141.65c-0.04-0.87-0.75-1.52-1.46-1.73
		c-0.75-0.22-1.35,0.11-1.31,0.93c0.03,0.76,0.59,1.55,1.42,1.79C145.24,142.86,145.87,142.51,145.83,141.65"/>
	<path display="inline" fill="#00447C" d="M132.23,137.27c-0.06-1.32,0.94-2.66,3.51-1.89c2.11,0.62,3.63,2.19,3.7,3.85
		c0.06,1.28-1.97,1.82-1.97,1.82c0,0.01,1.15,0.6,1.74,1.52c0.39,0.6,0.53,1.18,0.56,1.69c0.08,1.95-1.66,2.71-3.73,2.15
		c-2.15-0.58-3.68-2.45-3.76-4.19c-0.04-0.84,0.25-1.34,0.69-1.66c0.49-0.36,1.35-0.38,1.35-0.38
		C134.33,140.17,132.3,138.95,132.23,137.27 M137.54,143.59c-0.04-0.97-0.77-1.73-1.58-1.96c-0.87-0.25-1.48,0.24-1.44,1.15
		c0.05,1.09,0.87,1.84,1.6,2.03C136.75,144.99,137.59,144.78,137.54,143.59 M137.26,138.8c-0.04-0.87-0.75-1.52-1.46-1.73
		c-0.75-0.22-1.35,0.11-1.31,0.93c0.03,0.76,0.59,1.55,1.42,1.79C136.67,140.01,137.3,139.66,137.26,138.8"/>
	<path display="inline" fill="#00447C" d="M151.74,148.64c0.06,0.63,0.47,1.06,1.09,1.1c1.55,0.12,1.62-2.92,1.62-2.92
		c-0.09-0.04-1.42,0.64-1.88,0.6c-2.55-0.22-3.21-2.47-3.21-3.71c0-1.94,1.38-3.09,3.68-2.88c3.58,0.33,3.67,3.43,3.67,5.07
		c0,4.31-1.49,5.72-4.01,5.54c-0.58-0.04-3.22-0.39-3.22-3.12C150.39,148.47,150.84,148.54,151.74,148.64 M154.4,144.16
		c0-0.9-0.48-1.57-1.39-1.65c-1.06-0.09-1.45,0.68-1.45,1.47c0,0.36,0.11,1.68,1.41,1.78C154.08,145.84,154.41,144.87,154.4,144.16"
		/>
</g>
<path fill="#00447C" d="M213.56,119.17L249,93.07h-65.31l-19.27-59.94l-19.73,59.94H79.6l33.88,24.74c1.66,0.58,3.37,1.19,5.22,1.83
	c14.57,5.12,28.06,13.01,44.11,14.64c18.75,1.91,34.96-3.42,48.59-13.52C211.97,120.33,213.56,119.17,213.56,119.17z"/>
<g>
	<g>
		<path fill="#00447C" d="M262.93,41.65h8.16v15.21h14.37V41.65h8.26V79.7h-8.16V63.02h-14.47V79.7h-8.16V41.65z"/>
		<path fill="#00447C" d="M316.77,79.7c-0.26-1.63-0.26-2.84-0.26-3.63c-2.95,4.26-6.47,4.26-7.95,4.26c-3.84,0-5.58-1.11-6.63-2.11
			c-1.58-1.58-2.32-3.74-2.32-5.84c0-2.11,0.74-6,5.63-8.26c3.26-1.47,7.95-1.47,10.53-1.47c0-1.74-0.05-2.58-0.37-3.53
			c-0.68-1.95-2.74-2.21-3.47-2.21c-1.11,0-2.26,0.47-2.95,1.47c-0.58,0.9-0.58,1.74-0.58,2.37h-7.63c0.05-1.42,0.21-4.26,3-6.26
			c2.42-1.74,5.53-2.16,8.05-2.16c2.21,0,6.84,0.37,9.47,3.42c1.79,2.16,1.84,5.32,1.84,6.53l0.05,10.69c0,2.26,0.16,4.53,0.63,6.74
			H316.77z M307.19,71.49c0,1.79,1.21,3.79,3.79,3.79c1.42,0,2.58-0.68,3.32-1.53c1.37-1.68,1.47-3.74,1.47-6.58
			C310.77,66.76,307.19,68.33,307.19,71.49z"/>
		<path fill="#00447C" d="M330.08,59.65c0-1.26-0.21-5.11-0.37-6.63h7.32l0.16,5.11c1-2.26,2.74-5.47,9.05-5.16v7
			c-7.9-0.74-8.37,3.32-8.37,6.63V79.7h-7.79V59.65z"/>
		<path fill="#00447C" d="M348.45,59.65c0-1.26-0.21-5.11-0.37-6.63h7.32l0.16,5.11c1-2.26,2.74-5.47,9.05-5.16v7
			c-7.9-0.74-8.37,3.32-8.37,6.63V79.7h-7.79V59.65z"/>
		<path fill="#00447C" d="M366.56,41.7h8.32v6.79h-8.32V41.7z M366.82,53.07h7.79V79.7h-7.79V53.07z"/>
		<path fill="#00447C" d="M386.87,72.02c0.1,1.68,1.16,3.63,4.42,3.63c2.79,0,4.11-1.58,4.11-3.16c0-1.21-0.63-2.16-3.68-3
			l-4.84-1.32c-2.16-0.63-6.74-1.95-6.74-7.37c0-5.16,4.74-8.32,11.63-8.32c5.47,0,9.9,2.53,10.11,7.84h-7.11
			c-0.21-2.95-2.58-3.16-3.79-3.16c-2.11,0-3.68,1-3.68,2.63c0,1.79,1.32,2.16,3.63,2.79l4.79,1.32c4.84,1.32,7.11,3.79,7.11,7.42
			c0,4.58-3.95,9.16-12.21,9.16c-3.42,0-6.69-0.74-9.11-3.26c-1.74-1.84-1.9-3.95-1.95-5.21H386.87z"/>
		<path fill="#00447C" d="M444.03,54.07c-0.16-1.32-0.63-6.68-6.16-6.68c-6.05,0-8.58,6.32-8.58,14.16c0,2.26,0,13.05,7.95,13.05
			c3.42,0,6.68-2.16,6.84-7.21h8.58c-0.16,2.26-0.37,5.79-3.42,8.95c-3.37,3.47-7.63,4.26-11.11,4.26
			c-13.11,0-17.37-9.68-17.37-19.11c0-12.05,6.74-20.05,17.42-20.05c8.32,0,14.16,5.05,14.16,12.63H444.03z"/>
		<path fill="#00447C" d="M470.03,52.49c9.63,0,13.79,6.53,13.79,13.95c0,7.47-4.32,14.21-13.95,14.21c-7.58,0-13.58-4.68-13.58-14
			C456.29,60.23,459.55,52.49,470.03,52.49z M470.13,75.23c3.42,0,5.74-2.05,5.74-9.11c0-3.53-0.68-8.42-5.84-8.42
			c-5.68,0-5.74,6.58-5.74,9C464.29,72.65,466.29,75.23,470.13,75.23z"/>
		<path fill="#00447C" d="M497.29,53.12v15.84c0,2.32,0,5.84,4.16,5.84c5,0,5-3.74,5-8.26V53.12h8v17.53
			c0.11,5.74,0.16,6.42,0.16,7.11c0.05,0.74,0.1,1.21,0.21,1.95h-7.58l-0.26-3.53c-0.79,1.16-2.79,4.21-7.84,4.21
			c-3.58,0-6.53-1.63-8-3.58c-1.74-2.16-1.74-5.84-1.74-7.16V53.12H497.29z"/>
		<path fill="#00447C" d="M521.92,57.86c0-0.11,0-3-0.16-4.84h7.47l0.21,4c0.74-1.21,2.84-4.63,8.63-4.63c5.21,0,7.42,3.16,8.11,5
			c0.58,1.63,0.74,3,0.74,7.95V79.7h-7.95V63.18c0-1.11,0-2.05-0.42-2.89c-0.58-1.16-1.79-2.26-3.79-2.26
			c-1.68,0-3.21,0.79-4.05,2.05c-0.47,0.68-0.95,2-0.95,4.05V79.7h-7.84V57.86z"/>
		<path fill="#00447C" d="M569.6,79.34c-2.53,0.68-4.79,0.84-6.05,0.84c-7.84,0-7.84-4.95-7.84-7.16V58.44h-5.11v-5.16h5.11v-5.21
			l7.74-2.84v8.05h6.32v5.16h-6.32v12c0.05,2.42,0.05,3.95,3.53,3.95c1.16,0,1.68-0.05,2.63-0.16V79.34z"/>
		<path fill="#00447C" d="M580.18,53.12l5.84,18.42l5.95-18.42h7.74l-10.05,26.11l-3.21,10.58h-7.84l3.37-10l-10.21-26.69H580.18z"
			/>
	</g>
	<g>
		<path fill="#BCBEC0" d="M263.79,91.99h10.44c4.85,0,10.54,0,14.54,4.7c3.2,3.75,4.45,8.69,4.45,13.64
			c0,7.79-3.25,12.59-5.99,14.79c-3.55,2.95-7.99,2.95-13.29,2.95h-10.14V91.99z M268.79,123.96h4.9c3.45,0,7.04-0.2,9.44-2
			c4.6-3.45,4.75-9.34,4.75-11.44c0-1.35-0.1-7.49-3.5-11.24c-2.3-2.55-5.2-3.15-9.59-3.15h-5.99V123.96z"/>
		<path fill="#BCBEC0" d="M302.71,116.37c-0.1,5.2,2.05,9.04,7.19,9.04c3.05,0,5.49-1.6,5.89-5.2h4.7c-0.15,1.25-0.35,3.3-2.15,5.25
			c-1.1,1.25-3.6,3.35-8.64,3.35c-7.89,0-11.64-4.89-11.64-12.84c0-4.95,1-9.04,4.95-11.79c2.4-1.7,5.39-1.85,6.84-1.85
			c11.24,0,10.99,9.94,10.89,14.04H302.71z M315.95,113.07c0.05-2.4-0.4-7.39-6.19-7.39c-3.05,0-6.74,1.85-6.84,7.39H315.95z"/>
		<path fill="#BCBEC0" d="M327.49,107.08c0-1.1-0.05-1.7-0.15-4.1h4.75l0.1,4.15c2.35-3.95,6.49-4.55,8.54-4.55
			c5.39,0,10.54,3.7,10.54,12.99c0,9.34-5.45,13.44-11.44,13.44c-3.65,0-6.34-1.55-7.69-3.75v12.44h-4.65V107.08z M339.03,125.56
			c1.2,0,3.7-0.25,5.3-2.45c1.8-2.45,2.05-6.04,2.05-7.84c0-4.5-1.35-9.19-6.89-9.19c-7.49,0-7.49,7.94-7.49,10.19
			C331.98,119.32,332.43,125.56,339.03,125.56z"/>
		<path fill="#BCBEC0" d="M373.44,128.06c-0.35-1.25-0.45-2.45-0.45-3.75c-2.25,4.15-5.65,4.55-7.74,4.55
			c-5.74,0-8.84-3.25-8.84-7.39c0-2,0.7-5.2,4.4-7.34c2.7-1.5,6.69-1.65,8.69-1.65c1.2,0,1.95,0.05,3.4,0.15c0-3.1,0-4.45-0.9-5.54
			c-0.95-1.25-3-1.65-4.35-1.65c-4.75,0-5,3.25-5.05,4.25h-4.7c0.15-1.3,0.3-3.05,1.75-4.75c1.9-2.1,5.45-2.7,8.09-2.7
			c3.65,0,7.54,1.15,8.89,3.7c0.8,1.5,0.85,2.7,0.85,3.85l-0.2,11.99c0,0.4,0.05,3.75,0.4,6.29H373.44z M370.2,115.72
			c-1.9,0-9.04,0-9.04,5.1c0,1.6,1,4.35,5.2,4.35c2.4,0,4.2-0.95,5.35-2.7c1.05-1.7,1.1-3.1,1.2-6.59
			C372.05,115.77,371.35,115.72,370.2,115.72z"/>
		<path fill="#BCBEC0" d="M386.18,108.08c0-1.7-0.1-3.45-0.25-5.1h4.75l0.1,4.85c0.9-3.5,3.9-4.65,5.99-4.95
			c1.4-0.2,2.45-0.15,3.25-0.1v4.6c-0.25-0.1-0.55-0.15-0.9-0.2c-0.35-0.05-0.8-0.05-1.35-0.05c-5.54,0-6.84,3.3-6.84,7.59v13.34
			h-4.75V108.08z"/>
		<path fill="#BCBEC0" d="M400.27,102.88h4.45v-5.25l4.65-1.5v6.74h5.59v3.45h-5.59v15.04c0,1.25,0,3.35,3.35,3.35
			c0.95,0,1.85-0.15,2.25-0.25v3.65c-0.85,0.15-2.2,0.3-3.9,0.3c-4.3,0-6.34-1.25-6.34-5.35v-16.73h-4.45V102.88z"/>
		<path fill="#BCBEC0" d="M420.7,106.33l-0.1-3.35h4.75v3.65c2.4-3.95,5.79-4.3,7.94-4.3c5.54,0,7.29,2.85,8.19,4.7
			c0.85-1.4,2.9-4.7,8.44-4.7c3.6,0,9.19,1.5,9.19,8.89v16.83h-4.75v-16.08c0-2.2-0.4-3.15-0.85-3.8c-0.8-1.15-2.4-2.2-4.8-2.2
			c-3.05,0-4.7,1.75-5.35,2.65c-1.1,1.55-1.1,4.3-1.1,5.39v14.04h-4.75v-16.58c0-3.1-1.8-5.5-5.5-5.5c-3.2,0-4.95,2-5.5,2.75
			c-1.05,1.45-1.1,3.5-1.1,5.1v14.24h-4.75V106.33z"/>
		<path fill="#BCBEC0" d="M470.76,116.37c-0.1,5.2,2.05,9.04,7.19,9.04c3.05,0,5.49-1.6,5.89-5.2h4.7c-0.15,1.25-0.35,3.3-2.15,5.25
			c-1.1,1.25-3.6,3.35-8.64,3.35c-7.89,0-11.64-4.89-11.64-12.84c0-4.95,1-9.04,4.95-11.79c2.4-1.7,5.39-1.85,6.84-1.85
			c11.24,0,10.99,9.94,10.89,14.04H470.76z M483.99,113.07c0.05-2.4-0.4-7.39-6.19-7.39c-3.05,0-6.74,1.85-6.84,7.39H483.99z"/>
		<path fill="#BCBEC0" d="M495.83,105.88l-0.05-2.9h4.7l0.05,4.05c0.55-1.05,2.35-4.55,8.04-4.55c2.25,0,9.09,0.85,9.09,8.54v17.03
			h-4.8v-15.93c0-1.65-0.2-3.15-1.35-4.3c-1.2-1.15-2.85-1.7-4.45-1.7c-3.4,0-6.54,2.45-6.54,7.49v14.44h-4.7V105.88z"/>
		<path fill="#BCBEC0" d="M522.36,102.88h4.45v-5.25l4.65-1.5v6.74h5.59v3.45h-5.59v15.04c0,1.25,0,3.35,3.35,3.35
			c0.95,0,1.85-0.15,2.25-0.25v3.65c-0.85,0.15-2.2,0.3-3.9,0.3c-4.3,0-6.34-1.25-6.34-5.35v-16.73h-4.45V102.88z"/>
		<path fill="#BCBEC0" d="M567.62,102.33c10.04,0,12.29,7.89,12.29,13.14c0,7.34-4.15,13.44-12.69,13.44
			c-8.29,0-12.34-5.74-12.34-13.09C554.88,109.62,557.78,102.33,567.62,102.33z M567.32,125.41c3.55,0,7.59-2.55,7.59-10.09
			c0-6.24-2.9-9.54-7.29-9.54c-3,0-7.84,1.9-7.84,9.74C559.77,120.66,561.97,125.41,567.32,125.41z"/>
		<path fill="#BCBEC0" d="M599.79,95.49c-0.8-0.05-1.8-0.1-2.75-0.1c-3.8,0-3.8,1.9-3.8,3.65v3.95h5.84v3.4h-5.84v21.68h-4.65
			v-21.68h-4.95v-3.4h4.95v-2.85c0-3.45,0.2-4.7,1.05-5.99c1.05-1.6,3.05-2.75,6.29-2.75c1.35,0,2.85,0.2,3.85,0.35V95.49z"/>
	</g>
	<g>
		<path fill="#C41230" d="M264.75,140.81h34.97v8.53h-23.77v12.43h22.25v8.53h-22.25v14.09h24.57v8.67h-35.76V140.81z"/>
		<path fill="#C41230" d="M332.37,140.88h10.77v46.24c0,2.17,0.14,4.55,0.29,5.92h-10.84l-0.29-5.27c-0.72,1.3-1.44,2.67-3.68,4.12
			c-2.67,1.73-5.49,1.88-7.08,1.88c-9.75,0-15.53-6.72-15.53-18.14c0-12.07,6.57-19.58,16.11-19.58c6.57,0,9.32,3.68,10.26,4.99
			V140.88z M324.21,186.84c3.11,0,5.64-1.88,6.79-4.12c1.59-3.03,1.73-6.79,1.73-8.6c0-7.15-3.11-11.05-7.95-11.05
			c-7.15,0-7.95,8.6-7.95,12.28C316.84,181.42,318.86,186.84,324.21,186.84z"/>
		<path fill="#C41230" d="M362.87,156.56v21.75c0,3.18,0,8.02,5.71,8.02c6.86,0,6.86-5.13,6.86-11.34v-18.42h10.98v24.06
			c0.14,7.88,0.22,8.81,0.22,9.75c0.07,1.01,0.14,1.66,0.29,2.67h-10.4l-0.36-4.84c-1.08,1.59-3.83,5.78-10.77,5.78
			c-4.91,0-8.96-2.24-10.98-4.91c-2.38-2.96-2.38-8.02-2.38-9.83v-22.69H362.87z"/>
		<path fill="#C41230" d="M415.83,169.5c-0.14-1.3-0.58-6.72-4.7-6.72c-5.06,0-5.64,7.66-5.64,11.63c0,2.02,0.22,8.53,2.67,11.2
			c1.01,1.08,2.1,1.23,2.89,1.23c1.16,0,4.48-0.51,4.91-7.01h10.55c-0.14,2.82-0.51,7.22-4.7,10.77c-2.6,2.24-5.85,3.4-10.4,3.4
			c-4.84,0-9.1-1.08-12.43-4.84c-3.18-3.68-4.62-8.53-4.62-14.38c0-16.62,12.21-18.93,17.05-18.93c6.79,0,14.81,3.76,14.88,13.66
			H415.83z"/>
		<path fill="#C41230" d="M454.56,193.05c-0.36-2.24-0.36-3.9-0.36-4.99c-4.05,5.85-8.89,5.85-10.91,5.85
			c-5.27,0-7.66-1.52-9.1-2.89c-2.17-2.17-3.18-5.13-3.18-8.02c0-2.89,1.01-8.24,7.73-11.34c4.48-2.02,10.91-2.02,14.45-2.02
			c0-2.38-0.07-3.54-0.51-4.84c-0.94-2.67-3.76-3.03-4.77-3.03c-1.52,0-3.11,0.65-4.05,2.02c-0.79,1.23-0.79,2.38-0.79,3.25h-10.48
			c0.07-1.95,0.29-5.85,4.12-8.6c3.32-2.38,7.59-2.96,11.05-2.96c3.03,0,9.39,0.51,13,4.7c2.46,2.96,2.53,7.3,2.53,8.96l0.07,14.67
			c0,3.11,0.22,6.21,0.87,9.25H454.56z M441.41,181.78c0,2.46,1.66,5.2,5.2,5.2c1.95,0,3.54-0.94,4.55-2.1
			c1.88-2.31,2.02-5.13,2.02-9.03C446.32,175.28,441.41,177.44,441.41,181.78z"/>
		<path fill="#C41230" d="M494.3,192.54c-3.47,0.94-6.57,1.16-8.31,1.16c-10.77,0-10.77-6.79-10.77-9.83v-20.01h-7.01v-7.08h7.01
			v-7.15l10.62-3.9v11.05h8.67v7.08h-8.67v16.47c0.07,3.32,0.07,5.42,4.84,5.42c1.59,0,2.31-0.07,3.61-0.22V192.54z"/>
		<path fill="#C41230" d="M500.59,140.88H512v9.32h-11.42V140.88z M500.95,156.49h10.69v36.56h-10.69V156.49z"/>
		<path fill="#C41230" d="M538.23,155.7c13.22,0,18.93,8.96,18.93,19.15c0,10.26-5.92,19.51-19.15,19.51
			c-10.4,0-18.64-6.43-18.64-19.22C519.37,166.32,523.85,155.7,538.23,155.7z M538.38,186.91c4.7,0,7.88-2.82,7.88-12.5
			c0-4.84-0.94-11.56-8.02-11.56c-7.8,0-7.88,9.03-7.88,12.35C530.36,183.37,533.1,186.91,538.38,186.91z"/>
		<path fill="#C41230" d="M565.33,163.07c0-0.14,0-4.12-0.22-6.65h10.26l0.29,5.49c1.01-1.66,3.9-6.36,11.85-6.36
			c7.15,0,10.19,4.33,11.13,6.86c0.79,2.24,1.01,4.12,1.01,10.91v19.72h-10.91v-22.69c0-1.52,0-2.82-0.58-3.97
			c-0.79-1.59-2.46-3.11-5.2-3.11c-2.31,0-4.41,1.08-5.56,2.82c-0.65,0.94-1.3,2.75-1.3,5.56v21.39h-10.77V163.07z"/>
	</g>
</g>
<path fill="#C41230" d="M211.22,121.03l0.15-0.25c-14.55,10.7-30.84,15.21-48.41,13.42c-11.13-1.13-21.2-5.35-30.93-9.43
	c-4.28-1.79-8.7-3.64-13.15-5.21l-2.55-0.9c-16.05-5.66-24.1-8.49-39.86-5.19c-6.72,1.41-18.12,8.08-24.15,13.18
	c-4.67,3.39-10.35,8.15-16.43,13.78l0.12,0.15c0.23-0.15,23.14-15.54,36.83-16.63c15.35-1.22,24.87,2.16,40.66,7.76
	c3.36,1.19,7.17,2.54,11.34,3.96c19.28,6.53,26.49,7.63,36.3,7.75c8.62,0.1,15.63-0.95,22.05-3.3c5.29-1.94,10.11-4.7,16.08-9.23
	c0,0,0.52-0.41,0.52-0.41l2.64-2.11c2.35-1.87,4.84-3.86,7.29-5.85l0.1-0.21L211.22,121.03z"/>
<path fill="#FFFFFF" d="M211.24,120.98c-2.62,2.23-7,5.95-8.81,7.38l-2.64,2.11c0,0-0.51,0.41-0.52,0.41
	c-5.97,4.53-10.78,7.29-16.08,9.23c-6.42,2.35-13.42,3.39-22.05,3.3c-9.81-0.11-17.02-1.22-36.3-7.75
	c-4.17-1.41-7.98-2.76-11.34-3.96c-15.78-5.6-25.31-8.98-40.66-7.76c-13.69,1.09-36.61,16.47-36.83,16.63l-0.12-0.15
	c0.35-0.33-4.09,2.72-3.74,2.4c-6.1,4.44-7.39,5.54-10.86,8.17c1.43-1.03,2.91-2.04,4.55-3.04l1.98-1.14l1.82-1l0.01,0l0,0
	c0.93-0.44,1.9-0.85,2.88-1.27c2.53-1.08,5.5-1.97,9.35-2.81c5.31-1.16,11.55-1.42,19.1-0.79c11.56,0.99,22.53,4.19,33.13,7.28
	c2.25,0.66,4.59,1.34,6.86,1.98c6.83,1.92,14.98,4.08,23.63,5.55c1.04,0.18,2.15,0.35,3.5,0.54l1.35,0.19
	c1.05,0.14,2.01,0.26,2.93,0.36c0.83,0.09,1.67,0.17,2.39,0.23l0.57,0.05c0.54,0.05,1.09,0.1,1.64,0.14
	c1.84,0.13,3.38,0.21,4.85,0.24c9.6,0.24,19.24-2.19,25.63-4.27c8.4-2.73,15.12-6.1,18.61-8.35l2.03-1.33l2.67-2.21
	c4.02-3.56,5.64-4.8,6.84-5.71C201.29,132.02,207.82,125.54,211.24,120.98z"/>
</svg>
